# xmcd
#
# Track frame offsets:
#	150
#	18170
#	38875
#
# Disc length: 707 seconds
#
# Revision: 0
# Processed by: cddbd v1.5.1PL2 Copyright (c) Steve Scherf et al.
# Submitted via: dBpowerAMP V4.0
#
DISCID=1802c103
DTITLE=Shea Seger - Clutch
DYEAR=1900
DGENRE=
TTITLE0=Clutch
TTITLE1=Clutch (the neptunes remix)
TTITLE2=Shatterwall (Live Radio Performance)
EXTD=
EXTT0=
EXTT1=
EXTT2=
PLAYORDER=
